<?xml version="1.0" encoding="UTF-8"?>
<!DOCTYPE svg PUBLIC "-//W3C//DTD SVG 1.1//EN" "http://www.w3.org/Graphics/SVG/1.1/DTD/svg11.dtd">
<!-- Creator: CorelDRAW -->
<svg xmlns="http://www.w3.org/2000/svg" xml:space="preserve" width="2515px" height="811px" version="1.1" style="shape-rendering:geometricPrecision; text-rendering:geometricPrecision; image-rendering:optimizeQuality; fill-rule:evenodd; clip-rule:evenodd"
viewBox="0 0 2515 811.2"
 xmlns:xlink="http://www.w3.org/1999/xlink"
 xmlns:xodm="http://www.corel.com/coreldraw/odm/2003">
 <defs>
  <style type="text/css">
   <![CDATA[
    .fil1 {fill:black}
    .fil0 {fill:#C7F464}
   ]]>
  </style>
 </defs>
 <g id="Camada_x0020_1">
  <metadata id="CorelCorpID_0Corel-Layer"/>
  <g id="_1746068058304">
   <g>
    <path class="fil0" d="M232.08 45.79c98.5,0 178.35,79.84 178.35,178.34 0,98.49 -79.85,178.34 -178.35,178.34 -98.49,0 -178.34,-79.85 -178.34,-178.34 0,-98.5 79.85,-178.34 178.34,-178.34z"/>
    <path class="fil1" d="M302.14 5.29l-39.67 101.53c-1.66,4.27 0.46,9.11 4.73,10.77l7.15 2.8c4.27,1.67 9.11,-0.46 10.78,-4.72l39.66 -101.53c1.66,-4.27 -0.46,-9.11 -4.72,-10.78l-7.16 -2.79c-4.26,-1.67 -9.11,0.45 -10.77,4.72zm44.87 163.72l98.82 -45.98c4.16,-1.93 9.13,-0.11 11.07,4.04l3.23 6.96c1.93,4.15 0.12,9.12 -4.04,11.05l-98.83 45.98c-4.15,1.93 -9.12,0.11 -11.05,-4.04l-3.24 -6.96c-1.93,-4.15 -0.12,-9.12 4.04,-11.05zm-334.28 151.03l98.83 -45.97c4.15,-1.94 9.12,-0.12 11.05,4.03l3.24 6.97c1.93,4.15 0.12,9.11 -4.03,11.05l-98.84 45.98c-4.15,1.93 -9.12,0.12 -11.05,-4.04l-3.24 -6.96c-1.93,-4.16 -0.12,-9.12 4.04,-11.06zm0.74 -182.92l103.2 35.06c4.34,1.47 6.68,6.22 5.2,10.56l-2.47 7.26c-1.47,4.35 -6.21,6.68 -10.55,5.21l-103.21 -35.07c-4.34,-1.47 -6.67,-6.22 -5.2,-10.55l2.47 -7.27c1.48,-4.34 6.22,-6.68 10.56,-5.2zm157.86 -21.72l-45.98 -98.83c-1.93,-4.16 -0.12,-9.13 4.04,-11.06l6.96 -3.24c4.15,-1.93 9.12,-0.12 11.06,4.04l45.97 98.83c1.93,4.15 0.12,9.12 -4.03,11.05l-6.97 3.24c-4.15,1.93 -9.12,0.12 -11.05,-4.03z"/>
    <path class="fil1" d="M367.1 613.07l87.91 154.2c6.7,14.54 25.22,21.39 39.78,14.7 15.02,-6.9 21.61,-24.74 14.7,-39.76l-60.77 -163.76 134.82 -28.87c5.59,-1.63 7.06,-6.23 7.44,-8.13 0.37,-1.91 0.76,-6.71 -3.77,-10.35l-337 -308.6c-3.74,-3.02 -8.75,-3.09 -12.65,-0.47 -1.66,1.11 -4.46,3.68 -4.61,8.42l6.93 463.1c-0.19,5.66 3.66,9.11 7.01,10.35 1.84,0.68 5.5,1.44 9.41,-1.1l110.8 -89.73zm95.58 194.6c-14.14,-5.23 -25.4,-15.64 -31.7,-29.34l-75.1 -126.34 -85.12 72.96c-9.93,6.48 -21.99,7.85 -33.05,3.77 -15.04,-5.56 -24.79,-20.04 -24.28,-36.03l-6.93 -463.09c0.4,-12.07 6.34,-22.83 16.29,-29.52 13.3,-8.96 31.39,-8.34 43.98,1.78l336.99 308.6c10.82,8.67 15.87,22.51 13.18,36.13 -2.7,13.62 -12.66,24.49 -25.97,28.39l-105.38 20.26 47.94 135.91c13.01,28.28 0.58,61.85 -27.68,74.86 -13.7,6.3 -29.04,6.88 -43.17,1.66z"/>
   </g>
   <g>
    <path class="fil1" d="M860.16 364.94c40.39,0 73.83,-14.56 95.67,-41.38l-34.43 -31.78c-15.55,18.21 -35.09,27.48 -58.25,27.48 -43.37,0 -74.16,-30.46 -74.16,-74.15 0,-43.7 30.79,-74.16 74.16,-74.16 23.16,0 42.7,9.28 58.25,27.15l34.43 -31.78c-21.84,-26.48 -55.28,-41.05 -95.33,-41.05 -72.17,0 -125.8,49.99 -125.8,119.84 0,69.85 53.63,119.83 125.46,119.83zm128.11 -3.97l51.65 0 0 -245.63 -51.65 0 0 245.63zm125.47 -202.93c19.2,0 32.11,-12.57 32.11,-29.79 0,-15.89 -12.91,-27.81 -32.11,-27.81 -19.2,0 -32.11,12.59 -32.11,28.81 0,16.22 12.91,28.79 32.11,28.79zm-25.82 202.93l51.64 0 0 -178.1 -51.64 0 0 178.1zm185.71 2.65c37.41,0 66.87,-16.55 79.77,-45.02l-40.05 -21.85c-9.6,17.21 -23.83,24.49 -40.05,24.49 -26.16,0 -46.68,-18.21 -46.68,-49.32 0,-31.12 20.52,-49.32 46.68,-49.32 16.22,0 30.45,7.61 40.05,24.49l40.05 -21.51c-12.9,-29.13 -42.36,-45.35 -79.77,-45.35 -57.94,0 -99.31,38.06 -99.31,91.69 0,53.63 41.37,91.7 99.31,91.7zm240.99 -2.65l62.57 0 -80.78 -102.62 74.16 -75.48 -61.58 0 -75.47 71.5 0 -139.03 -51.64 0 0 245.63 51.64 0 0 -45.35 24.82 -24.5 56.28 69.85z"/>
    <path class="fil1" d="M860.16 710.75c40.39,0 73.83,-14.56 95.67,-41.38l-34.43 -31.77c-15.55,18.2 -35.09,27.47 -58.25,27.47 -43.37,0 -74.16,-30.45 -74.16,-74.15 0,-43.7 30.79,-74.15 74.16,-74.15 23.16,0 42.7,9.27 58.25,27.14l34.43 -31.78c-21.84,-26.48 -55.28,-41.05 -95.33,-41.05 -72.17,0 -125.8,49.99 -125.8,119.84 0,69.85 53.63,119.83 125.46,119.83zm198.62 -184.71c-28.46,0 -57.26,7.61 -76.79,21.51l18.54 36.09c12.9,-10.27 32.44,-16.55 51.31,-16.55 27.8,0 41.04,12.9 41.04,35.09l-41.04 0c-54.29,0 -76.48,21.84 -76.48,53.29 0,30.79 24.83,53.96 66.54,53.96 26.16,0 44.69,-8.61 54.29,-24.83l0 22.18 48.33 0 0 -101.62c0,-53.96 -31.45,-79.12 -85.74,-79.12zm-3.96 148.63c-18.21,0 -29.14,-8.61 -29.14,-21.52 0,-11.91 7.62,-20.85 31.78,-20.85l35.42 0 0 18.21c-5.95,16.22 -20.85,24.16 -38.06,24.16zm364.46 -148.63c-26.81,0 -49.99,10.92 -64.22,29.13 -12.58,-19.53 -33.77,-29.13 -58.6,-29.13 -22.83,0 -42.7,7.94 -55.94,23.17l0 -20.53 -49.32 0 0 178.1 51.64 0 0 -89.38c0,-31.78 16.22,-46.67 39.06,-46.67 21.52,0 33.76,13.24 33.76,42.04l0 94.01 51.65 0 0 -89.38c0,-31.78 16.22,-46.67 39.39,-46.67 20.86,0 33.76,13.24 33.76,42.04l0 94.01 51.65 0 0 -101.96c0,-54.29 -30.46,-78.78 -72.83,-78.78zm144.99 -22.18c19.2,0 32.11,-12.58 32.11,-29.8 0,-15.89 -12.91,-27.8 -32.11,-27.8 -19.2,0 -32.11,12.58 -32.11,28.8 0,16.22 12.91,28.8 32.11,28.8zm-25.82 202.92l51.64 0 0 -178.1 -51.64 0 0 178.1zm159.56 2.65c53.3,0 84.08,-23.5 84.08,-56.61 0,-70.18 -107.59,-40.72 -107.59,-71.17 0,-9.27 9.94,-16.55 33.11,-16.55 16.22,0 33.76,3.31 51.31,13.24l17.22 -36.75c-16.89,-9.93 -44.04,-15.55 -68.53,-15.55 -51.98,0 -82.43,23.83 -82.43,57.6 0,71.17 107.59,41.32 107.59,70.51 0,9.93 -8.94,16.22 -32.77,16.22 -21.85,0 -46.02,-6.96 -61.91,-17.22l-17.21 37.08c16.55,10.92 47.01,19.2 77.13,19.2zm290.31 -91.03c0,-57.27 -40.38,-92.36 -92.69,-92.36 -54.28,0 -95,38.4 -95,91.69 0,52.97 40.06,91.7 101.63,91.7 32.11,0 56.93,-9.93 73.49,-28.8l-27.48 -29.79c-12.25,11.58 -25.82,17.21 -44.69,17.21 -27.15,0 -46.01,-13.57 -50.98,-35.75l134.73 0c0.33,-4.31 0.99,-9.93 0.99,-13.9zm-92.36 -53.3c23.18,0 40.06,14.56 43.7,37.08l-87.72 0c3.64,-22.85 20.52,-37.08 44.02,-37.08zm227.76 96.66c-5.63,4.3 -13.24,6.62 -20.86,6.62 -13.9,0 -22.17,-8.28 -22.17,-23.5l0 -72.5 44.35 0 0 -39.72 -44.35 0 0 -43.37 -51.64 0 0 43.37 -27.48 0 0 39.72 27.48 0 0 73.16c0,42.37 24.49,63.89 66.53,63.89 15.89,0 31.45,-3.64 42.04,-11.26l-13.9 -36.41zm114.86 -135.72c-28.46,0 -57.26,7.61 -76.79,21.51l18.54 36.09c12.9,-10.27 32.44,-16.55 51.31,-16.55 27.8,0 41.05,12.9 41.05,35.09l-41.05 0c-54.29,0 -76.48,21.84 -76.48,53.29 0,30.79 24.83,53.96 66.54,53.96 26.16,0 44.69,-8.61 54.29,-24.83l0 22.18 48.34 0 0 -101.62c0,-53.96 -31.46,-79.12 -85.75,-79.12zm-3.96 148.63c-18.21,0 -29.14,-8.61 -29.14,-21.52 0,-11.91 7.62,-20.85 31.78,-20.85l35.43 0 0 18.21c-5.96,16.22 -20.86,24.16 -38.07,24.16zm196.29 34.76c53.3,0 84.09,-23.5 84.09,-56.61 0,-70.18 -107.59,-40.72 -107.59,-71.17 0,-9.27 9.93,-16.55 33.11,-16.55 16.22,0 33.76,3.31 51.31,13.24l17.21 -36.75c-16.88,-9.93 -44.03,-15.55 -68.52,-15.55 -51.98,0 -82.44,23.83 -82.44,57.6 0,71.17 107.59,41.32 107.59,70.51 0,9.93 -8.93,16.22 -32.77,16.22 -21.85,0 -46.01,-6.96 -61.9,-17.22l-17.21 37.08c16.55,10.92 47,19.2 77.12,19.2z"/>
   </g>
  </g>
 </g>
</svg>
