<?xml version="1.0" encoding="UTF-8"?>
<!DOCTYPE svg PUBLIC "-//W3C//DTD SVG 1.1//EN" "http://www.w3.org/Graphics/SVG/1.1/DTD/svg11.dtd">
<!-- Creator: CorelDRAW -->
<svg xmlns="http://www.w3.org/2000/svg" xml:space="preserve" width="618px" height="811px" version="1.1" style="shape-rendering:geometricPrecision; text-rendering:geometricPrecision; image-rendering:optimizeQuality; fill-rule:evenodd; clip-rule:evenodd"
viewBox="0 0 151.77 199.33"
 xmlns:xlink="http://www.w3.org/1999/xlink"
 xmlns:xodm="http://www.corel.com/coreldraw/odm/2003">
 <defs>
  <style type="text/css">
   <![CDATA[
    .fil1 {fill:black}
    .fil0 {fill:#C7F464}
   ]]>
  </style>
 </defs>
 <g id="Camada_x0020_1">
  <metadata id="CorelCorpID_0Corel-Layer"/>
  <g id="_1710679515328">
   <path class="fil0" d="M57.03 11.25c24.2,0 43.82,19.62 43.82,43.82 0,24.21 -19.62,43.83 -43.82,43.83 -24.2,0 -43.82,-19.62 -43.82,-43.83 0,-24.2 19.62,-43.82 43.82,-43.82z"/>
   <path class="fil1" d="M74.24 1.3l-9.74 24.95c-0.41,1.05 0.11,2.24 1.16,2.65l1.75 0.68c1.05,0.41 2.24,-0.11 2.65,-1.16l9.75 -24.95c0.41,-1.04 -0.11,-2.23 -1.16,-2.64l-1.76 -0.69c-1.05,-0.41 -2.24,0.11 -2.65,1.16zm11.03 40.23l24.28 -11.3c1.02,-0.47 2.24,-0.03 2.72,0.99l0.8 1.71c0.47,1.02 0.03,2.24 -1,2.72l-24.28 11.3c-1.02,0.47 -2.24,0.03 -2.72,-0.99l-0.79 -1.71c-0.48,-1.02 -0.03,-2.24 0.99,-2.72zm-82.14 37.11l24.28 -11.29c1.02,-0.48 2.24,-0.03 2.72,0.99l0.8 1.71c0.47,1.02 0.02,2.24 -1,2.71l-24.28 11.3c-1.02,0.48 -2.24,0.03 -2.72,-0.99l-0.79 -1.71c-0.48,-1.02 -0.03,-2.24 0.99,-2.72zm0.18 -44.95l25.36 8.62c1.06,0.36 1.64,1.53 1.28,2.59l-0.61 1.79c-0.36,1.07 -1.53,1.64 -2.59,1.28l-25.36 -8.62c-1.07,-0.36 -1.64,-1.53 -1.28,-2.59l0.61 -1.79c0.36,-1.07 1.52,-1.64 2.59,-1.28zm38.79 -5.33l-11.3 -24.29c-0.47,-1.02 -0.03,-2.24 0.99,-2.72l1.71 -0.79c1.03,-0.48 2.25,-0.03 2.72,0.99l11.3 24.28c0.47,1.03 0.03,2.25 -0.99,2.72l-1.71 0.8c-1.02,0.47 -2.24,0.03 -2.72,-0.99z"/>
   <path class="fil1" d="M90.21 150.65l21.6 37.89c1.64,3.57 6.19,5.25 9.77,3.61 3.69,-1.7 5.31,-6.08 3.62,-9.77l-14.94 -40.24 33.13 -7.09c1.37,-0.41 1.74,-1.54 1.83,-2 0.09,-0.47 0.19,-1.65 -0.93,-2.55l-82.81 -75.82c-0.92,-0.75 -2.15,-0.77 -3.11,-0.12 -0.4,0.27 -1.09,0.9 -1.13,2.07l1.7 113.79c-0.04,1.39 0.9,2.24 1.73,2.55 0.45,0.16 1.35,0.35 2.31,-0.27l27.23 -22.05zm23.48 47.81c-3.47,-1.28 -6.24,-3.84 -7.79,-7.21l-18.45 -31.04 -20.92 17.93c-2.44,1.59 -5.4,1.93 -8.12,0.92 -3.69,-1.36 -6.09,-4.92 -5.97,-8.85l-1.7 -113.79c0.1,-2.97 1.56,-5.61 4.01,-7.26 3.26,-2.2 7.71,-2.04 10.8,0.44l82.81 75.83c2.66,2.13 3.9,5.53 3.24,8.88 -0.67,3.35 -3.11,6.02 -6.38,6.98l-25.9 4.98 11.78 33.39c3.2,6.95 0.14,15.2 -6.8,18.4 -3.37,1.55 -7.14,1.69 -10.61,0.4z"/>
  </g>
 </g>
</svg>
